Coordinates
version=1
nRows=29
nColumns=22
inDegrees=yes

Units are S.I. units (second, meters, Newtons, ...)
If the header above contains a line with 'inDegrees', this indicates whether rotational values are in degrees (yes) or radians (no).

endheader
time	pelvis_tilt	pelvis_list	pelvis_rotation	pelvis_tx	pelvis_ty	pelvis_tz	hip_flexion_r	hip_adduction_r	hip_rotation_r	knee_angle_r	ankle_angle_r	subtalar_angle_r	hip_flexion_l	hip_adduction_l	hip_rotation_l	knee_angle_l	ankle_angle_l	subtalar_angle_l	lumbar_extension	lumbar_bending	lumbar_rotation
      1.88000000	     -1.05254287	     -0.06298000	    115.04703236	     -0.26179105	      0.91379665	      0.54866186	     -3.35314008	     10.33736273	     14.23825582	    -17.23949078	     10.78737457	    -10.37183769	     23.00076118	    -12.30234692	     -5.22375242	    -29.67421285	      2.28000035	      3.38833545	     -7.94777909	     -1.27628526	      8.80241776
      1.89000000	     -0.85529701	     -0.14338311	    114.01782168	     -0.26582221	      0.91218213	      0.54185057	     -3.75475207	     10.28930272	     15.02240402	    -17.37880297	     11.23683316	    -10.47199052	     23.05508391	    -12.24115330	     -5.11583034	    -26.08586827	      2.35392909	      4.28029935	     -7.75456920	     -1.10636149	      8.98120168
      1.90000000	     -0.66564676	     -0.23867510	    113.03833991	     -0.26995150	      0.91044587	      0.53497545	     -4.12851608	     10.21734060	     15.69017844	    -17.55980926	     11.72458768	    -10.55178570	     23.07952915	    -12.15853697	     -5.09800767	    -22.51462411	      2.47699435	      5.44090655	     -7.55451297	     -0.94252510	      9.12159003
      1.91000000	     -0.48693719	     -0.33104811	    112.11108822	     -0.27419537	      0.90862440	      0.52803691	     -4.50104314	     10.12604316	     16.26756679	    -17.76742726	     12.21798964	    -10.60392167	     23.07587811	    -12.05671672	     -5.19970968	    -19.02899407	      2.63866298	      6.90087204	     -7.36919519	     -0.77499048	      9.18489401
      1.92000000	     -0.31784416	     -0.42139295	    111.23085609	     -0.27854739	      0.90673480	      0.52100919	     -4.88168164	     10.01433237	     16.76159129	    -17.97972226	     12.72600166	    -10.61543537	     23.06266161	    -11.93594807	     -5.45236027	    -15.70192405	      2.78211817	      8.60421403	     -7.19315885	     -0.60865240	      9.19924843
      1.93000000	     -0.16463778	     -0.49763647	    110.36787188	     -0.28299058	      0.90481072	      0.51389040	     -5.27472617	      9.87524461	     17.16005413	    -18.21395750	     13.22442222	    -10.57900173	     23.03944324	    -11.79947366	     -5.86440824	    -12.62473525	      2.90088690	     10.44975362	     -7.04371451	     -0.44471448	      9.21966626
      1.94000000	     -0.00744574	     -0.55048513	    109.54495059	     -0.28752525	      0.90287121	      0.50670008	     -5.70490386	      9.73460124	     17.52671639	    -18.42094583	     13.70521565	    -10.49643873	     23.04562065	    -11.66270745	     -6.33279889	     -9.91014383	      2.94974389	     12.36861460	     -6.92760143	     -0.25687541	      9.18862447
      1.95000000	      0.16475665	     -0.56590706	    108.74958791	     -0.29209524	      0.90094924	      0.49944367	     -6.17701483	      9.61068652	     17.87048438	    -18.60905877	     14.15806445	    -10.37100538	     23.09692839	    -11.55837614	     -6.79518750	     -7.66631693	      2.94340997	     14.22345103	     -6.86272533	     -0.03553527	      9.13634144
      1.96000000	      0.34850653	     -0.54028893	    107.97278453	     -0.29664558	      0.89907814	      0.49212051	     -6.68957679	      9.50500574	     18.21135549	    -18.79124874	     14.56939715	    -10.20801841	     23.21275263	    -11.50629028	     -7.20029552	     -6.00088264	      2.91867411	     15.85489411	     -6.86079679	      0.20959201	      9.06678209
      1.97000000	      0.54477501	     -0.47432449	    107.20093574	     -0.30110739	      0.89729165	      0.48474325	     -7.23513534	      9.42435433	     18.60624393	    -18.98358668	     14.94528624	    -10.01803107	     23.41980217	    -11.53102219	     -7.52523736	     -5.01194445	      2.88615641	     17.06902030	     -6.92873726	      0.46906592	      8.98909350
      1.98000000	      0.76021620	     -0.34981932	    106.46110664	     -0.30555369	      0.89563465	      0.47723714	     -7.84913920	      9.37164417	     18.97950491	    -19.15063132	     15.23581921	     -9.80787130	     23.70580309	    -11.64195646	     -7.67331575	     -4.73305392	      2.96890934	     17.82906995	     -7.06857790	      0.75686261	      8.89596090
      1.99000000	      0.96154184	     -0.17372484	    105.74937165	     -0.30996103	      0.89414451	      0.46964998	     -8.50433225	      9.32076042	     19.35451460	    -19.35484641	     15.47463556	     -9.57386424	     24.06527030	    -11.80201805	     -7.67507706	     -5.15863422	      3.01413509	     18.13014128	     -7.29745278	      1.02781599	      8.76556178
      2.00000000	      1.14548630	      0.03367581	    105.04424555	     -0.31434726	      0.89278980	      0.46186412	     -9.20143987	      9.25749480	     19.78222298	    -19.57743566	     15.69133381	     -9.38679555	     24.46685860	    -11.99780213	     -7.51591114	     -6.19332698	      3.14011330	     17.99890182	     -7.56481105	      1.26545904	      8.63712227
      2.01000000	      1.32686082	      0.25309350	    104.32798044	     -0.31870775	      0.89158213	      0.45387551	     -9.90326971	      9.18818539	     20.25372533	    -19.83789716	     15.73956351	     -9.05207225	     24.89432536	    -12.22389731	     -7.23924134	     -7.71318704	      3.20783627	     17.36490563	     -7.84291425	      1.48274439	      8.54414600
      2.02000000	      1.46352963	      0.46228854	    103.63141354	     -0.32314171	      0.89047508	      0.44563719	    -10.59602978	      9.06762121	     20.71863431	    -20.14982694	     15.76398166	     -8.74120528	     25.29216023	    -12.39271392	     -6.76688276	     -9.52993297	      3.25503703	     16.46570602	     -8.10058134	      1.63099017	      8.42268336
      2.03000000	      1.54677836	      0.62928764	    102.94107190	     -0.32765095	      0.88945732	      0.43717345	    -11.22516005	      8.88139420	     21.16269353	    -20.54841780	     15.72095662	     -8.37816411	     25.63334777	    -12.46702843	     -6.13240234	    -11.46740197	      3.18926318	     15.37428808	     -8.30155706	      1.69672041	      8.27014079
      2.04000000	      1.57249919	      0.72897965	    102.25503095	     -0.33224072	      0.88851178	      0.42846988	    -11.76351475	      8.61702544	     21.55171945	    -21.02715506	     15.59595550	     -7.94302330	     25.90601030	    -12.42099122	     -5.33770506	    -13.39158471	      3.01337872	     14.21661272	     -8.40786135	      1.66902950	      8.12693427
      2.05000000	      1.55627199	      0.75957948	    101.58041827	     -0.33689287	      0.88764885	      0.41958904	    -12.18180919	      8.30519422	     21.89369742	    -21.61885136	     15.36043176	     -7.43501975	     26.10181745	    -12.25861929	     -4.39921768	    -15.19545185	      2.68641574	     13.08403979	     -8.42126477	      1.57319824	      7.91308627
      2.06000000	      1.43308216	      0.66480993	    100.88445334	     -0.34161720	      0.88682782	      0.41050008	    -12.40807612	      7.85346675	     22.09590642	    -22.36302593	     15.04288949	     -6.80523576	     26.25986095	    -11.92627947	     -3.49651582	    -16.84974693	      2.20663424	     11.96752591	     -8.28060793	      1.32259584	      7.72438658
      2.07000000	      1.29278222	      0.51952900	    100.18311590	     -0.34633644	      0.88610003	      0.40125731	    -12.49814704	      7.39498620	     22.24639266	    -23.25735064	     14.56899987	     -6.08885285	     26.37285659	    -11.54478188	     -2.62964131	    -18.36569726	      1.67080760	     10.95545969	     -8.06502542	      1.04077434	      7.47080619
      2.08000000	      1.11883417	      0.31233372	     99.48856471	     -0.35107432	      0.88547330	      0.39183673	    -12.43814337	      6.91051857	     22.29007041	    -24.29583570	     13.89224016	     -5.32659397	     26.45736422	    -11.10497048	     -1.81899542	    -19.72749828	      1.06349209	     10.08977888	     -7.75775440	      0.70767923	      7.17961436
      2.09000000	      0.95365853	      0.08357881	     98.77949065	     -0.35575105	      0.88496962	      0.38223872	    -12.25382743	      6.45395742	     22.26231585	    -25.48239663	     12.95850529	     -4.48377304	     26.54568364	    -10.70184890	     -1.19461153	    -21.05287996	      0.52849289	      9.33310979	     -7.40214270	      0.37615124	      6.89789360
      2.10000000	      0.79504951	     -0.13806219	     98.07038875	     -0.36034699	      0.88463175	      0.37247612	    -11.95858727	      6.04138039	     22.16116902	    -26.84014465	     11.75006443	     -3.62227336	     26.62071717	    -10.34885815	     -0.76047214	    -22.36353662	      0.12529297	      8.72579667	     -7.03749559	      0.05239588	      6.59027530
      2.11000000	      0.65922222	     -0.31911375	     97.34957170	     -0.36480328	      0.88450038	      0.36256312	    -11.56587586	      5.69910158	     21.99598233	    -28.39293011	     10.22461890	     -2.74986557	     26.66413508	    -10.08768502	     -0.55765672	    -23.70253832	     -0.05640313	      8.23788133	     -6.70479461	     -0.24551429	      6.26595283
      2.12000000	      0.53741392	     -0.42317206	     96.62088537	     -0.36913664	      0.88462805	      0.35251668	    -11.10694683	      5.41327457	     21.72879080	    -30.13577454	      8.37697446	     -1.90664172	     26.64387894	     -9.91164981	     -0.57840760	    -25.10388377	      0.03246788	      7.84971239	     -6.45339797	     -0.51877090	      5.96550829
      2.13000000	      0.41243824	     -0.44564154	     95.88037493	     -0.37331890	      0.88504058	      0.34238661	    -10.56023095	      5.16459744	     21.34447987	    -32.10077979	      6.22591042	     -1.10359031	     26.51994466	     -9.79479167	     -0.79875993	    -26.51628444	      0.37343877	      7.51279397	     -6.29442890	     -0.79060500	      5.65468707
      2.14000000	      0.26330825	     -0.38726561	     95.12341985	     -0.37734770	      0.88574860	      0.33223898	     -9.90730054	      4.91629827	     20.81629448	    -34.29962886	      3.80440821	     -0.39586348	     26.26038896	     -9.70168690	     -1.18737149	    -27.88399245	      0.91135299	      7.20707884	     -6.23766170	     -1.08401800	      5.34171176
      2.15000000	      0.07423176	     -0.25795633	     94.34011885	     -0.38120758	      0.88674791	      0.32216429	     -9.11640961	      4.63711873	     20.14453662	    -36.74618755	      1.15718614	      0.13800635	     25.83966689	     -9.59892056	     -1.70648119	    -29.13401252	      1.57163876	      6.94398849	     -6.27866753	     -1.41999701	      5.03867123
      2.16000000	     -0.15714714	     -0.09252598	     93.52915617	     -0.38488938	      0.88796907	      0.31225377	     -8.13710129	      4.31306252	     19.36009282	    -39.44563318	     -1.62267106	      0.50107112	     25.28029727	     -9.47327424	     -2.35818072	    -30.21945834	      2.31031047	      6.70016009	     -6.38127636	     -1.80201699	      4.71029842
